# xmcd
#
# Track frame offsets:
#   150
#   20545
#   38891
#   61048
#   80216
#   96815
#   116902
#   133976
#   154372
#   173766
#   191356
#   209760
#   225642
#   243300
#   266335
#
# Disc length: 3831 seconds
#
# Revision: 0
# Processed by: cddbd v1.5.1PL0 Copyright (c) Steve Scherf et al.
# Submitted via: uFREEDB ActiveX Control 1.5
#
DISCID=d30ef50f
DTITLE=J. Neto - Vinde a Mim
DYEAR=1900
DGENRE=Gospel and Religious
TTITLE0=Tua Graça me Basta
TTITLE1=Resposta
TTITLE2=Confissão de Amor
TTITLE3=Nazareno
TTITLE4=O Rosto de Cristo
TTITLE5=O Barro
TTITLE6=Vinde a MIm
TTITLE7=O Nome
TTITLE8=Volta Correndo
TTITLE9=É Bonita
TTITLE10=Jesus Te Amo
TTITLE11=Mistério Profundo
TTITLE12=O Meu Senhor Já Estava
TTITLE13=Amor Sem Fim
TTITLE14=Don'Ana
EXTD=
EXTT0=
EXTT1=
EXTT2=
EXTT3=
EXTT4=
EXTT5=
EXTT6=
EXTT7=
EXTT8=
EXTT9=
EXTT10=
EXTT11=
EXTT12=
EXTT13=
EXTT14=
PLAYORDER=
